<svg width="423.18" viewBox="0 0 14106 2283" text-rendering="auto" stroke-width="1" stroke-opacity="1" stroke-miterlimit="10" stroke-linejoin="miter" stroke-linecap="square" stroke-dashoffset="0" stroke-dasharray="none" stroke="black" shape-rendering="auto" image-rendering="auto" height="68.49" font-weight="normal" font-style="normal" font-size="12" font-family="'Dialog'" fill-opacity="1" fill="black" color-rendering="auto" color-interpolation="auto" xmlns="http://www.w3.org/2000/svg"><g><g stroke="white" fill="white"><rect y="0" x="0" width="14106" stroke="none" height="2283"/></g><g transform="translate(32866,32758)" text-rendering="geometricPrecision" stroke-width="44" stroke-linejoin="round" stroke-linecap="round"><line y2="-30850" y1="-30850" x2="-22492" x1="-23538" fill="none"/><line y2="-30989" y1="-30989" x2="-22622" x1="-23408" fill="none"/><line y2="-31376" y1="-30850" x2="-24445" x1="-23538" fill="none"/><line y2="-30850" y1="-31376" x2="-25352" x1="-24445" fill="none"/><line y2="-31376" y1="-30850" x2="-26260" x1="-25352" fill="none"/><line y2="-30850" y1="-31376" x2="-27170" x1="-26260" fill="none"/><line y2="-31376" y1="-30850" x2="-28077" x1="-27170" fill="none"/><line y2="-30850" y1="-31376" x2="-28984" x1="-28077" fill="none"/><line y2="-31376" y1="-30850" x2="-29891" x1="-28984" fill="none"/><line y2="-30850" y1="-31376" x2="-30798" x1="-29891" fill="none"/><line y2="-31376" y1="-30850" x2="-31705" x1="-30798" fill="none"/><line y2="-31376" y1="-30850" x2="-21585" x1="-22492" fill="none"/><line y2="-30850" y1="-31376" x2="-20678" x1="-21585" fill="none"/><line y2="-31376" y1="-30850" x2="-19771" x1="-20678" fill="none"/><line y2="-30850" y1="-31376" x2="-18864" x1="-19771" fill="none"/><line y2="-31070" y1="-31376" x2="-32231" x1="-31705" fill="none"/><line y2="-32202" y1="-31376" x2="-31774" x1="-31774" fill="none"/><line y2="-32202" y1="-31376" x2="-31633" x1="-31633" fill="none"/><text y="-30671" xml:space="preserve" x="-32762" stroke="none" font-size="433.3333" font-family="sans-serif">OH</text><text y="-32242" xml:space="preserve" x="-31855" stroke="none" font-size="433.3333" font-family="sans-serif">O</text><text y="-31139" xml:space="preserve" x="-23168" stroke="none" font-style="italic" font-size="313.3333" font-family="sans-serif">Z</text></g></g></svg>